<?xml version="1.0" encoding="UTF-8"?>
<!DOCTYPE svg PUBLIC "-//W3C//DTD SVG 1.1//EN" "http://www.w3.org/Graphics/SVG/1.1/DTD/svg11.dtd">
<!-- Creator: CorelDRAW X7 -->
<svg xmlns="http://www.w3.org/2000/svg" xml:space="preserve" width="137.52mm" height="70.6743mm" version="1.1" style="shape-rendering:geometricPrecision; text-rendering:geometricPrecision; image-rendering:optimizeQuality; fill-rule:evenodd; clip-rule:evenodd"
viewBox="0 0 735 378"
 xmlns:xlink="http://www.w3.org/1999/xlink">
 <defs>
  <style type="text/css">
   <![CDATA[
    .fil1 {fill:#191C53}
    .fil0 {fill:#F296B0}
    .fil3 {fill:#FABEBE}
    .fil2 {fill:#FABEBE}
   ]]>
  </style>
 </defs>
 <g id="Layer_x0020_1">
  <metadata id="CorelCorpID_0Corel-Layer"/>
  <g id="_2216028812736">
   <path class="fil0" d="M367 290c6,5 8,10 13,16 18,22 49,50 82,62 101,37 223,-34 232,-151 0,-1 0,-3 1,-6 1,-15 4,-44 7,-66 3,-21 6,-34 9,-49 3,-14 6,-29 11,-43 6,-15 14,-27 13,-33 -1,-5 -12,-3 -22,-2 -10,1 -21,2 -31,2 -11,1 -22,2 -35,4 -14,1 -29,2 -42,3 -13,1 -24,2 -37,2 -13,0 -29,-1 -37,-1 0,0 -1,0 -2,0 -31,-2 -63,5 -88,18 -29,15 -59,43 -74,70l-1 -1c-1,-1 -5,-9 -14,-18 -12,-22 -50,-50 -81,-61 -24,-7 -48,-10 -71,-8 -9,0 -22,1 -34,1 -13,0 -23,-1 -36,-2 -13,-1 -29,-2 -42,-3 -14,-2 -25,-3 -35,-4 -11,0 -21,-1 -31,-2 -10,-1 -21,-3 -22,2 -1,6 7,18 12,33 6,14 9,29 12,43 3,15 6,28 9,49 2,20 5,46 7,62 0,4 0,7 0,11 5,80 65,137 133,154 60,15 120,-3 162,-43 6,-5 26,-31 32,-39zm-58 -85c-6,16 -25,39 -32,47 -12,14 -26,26 -50,30 -102,16 -133,-135 -30,-158 24,-6 49,1 64,13 21,20 29,35 35,42 3,4 6,7 7,12 5,6 4,6 6,14zm129 19c-4,-8 -11,-14 -14,-23 19,-34 42,-72 82,-78 105,-17 132,138 30,158 -66,13 -84,-41 -98,-57z"/>
   <circle class="fil1" cx="367" cy="51" r="16"/>
   <circle class="fil1" cx="399" cy="29" r="10"/>
   <circle class="fil1" cx="430" cy="12" r="8"/>
   <circle class="fil1" cx="458" cy="5" r="5"/>
   <circle class="fil1" cx="334" cy="30" r="10"/>
   <circle class="fil1" cx="303" cy="13" r="8"/>
   <circle class="fil1" cx="275" cy="6" r="5"/>
   <path class="fil2" d="M297 181c3,4 4,5 6,10 6,8 5,9 6,14l58 -89 -2 -3c0,0 -3,-5 -13,-17 -9,14 -19,29 -28,43 -5,8 -10,17 -15,24 -5,6 -7,10 -12,18z"/>
   <path class="fil3" d="M367 290c4,4 4,3 7,8 6,7 1,2 8,10l56 -84 -1 -2c-1,0 -5,-10 -13,-21 -8,14 -20,32 -30,46 -5,8 -9,16 -15,24 -4,5 -7,11 -12,19z"/>
  </g>
 </g>
</svg>
