<?xml version="1.0" encoding="UTF-8"?>
<!DOCTYPE svg PUBLIC "-//W3C//DTD SVG 1.1//EN" "http://www.w3.org/Graphics/SVG/1.1/DTD/svg11.dtd">
<!-- Creator: CorelDRAW X7 -->
<svg xmlns="http://www.w3.org/2000/svg" xml:space="preserve" width="137.52mm" height="70.6743mm" version="1.1" style="shape-rendering:geometricPrecision; text-rendering:geometricPrecision; image-rendering:optimizeQuality; fill-rule:evenodd; clip-rule:evenodd"
viewBox="0 0 1061 545"
 xmlns:xlink="http://www.w3.org/1999/xlink">
 <defs>
  <style type="text/css">
   <![CDATA[
    .fil1 {fill:#191C53}
    .fil0 {fill:#F296B0}
    .fil3 {fill:#FABEBE}
    .fil2 {fill:#FABEBE}
   ]]>
  </style>
 </defs>
 <g id="Layer_x0020_1">
  <metadata id="CorelCorpID_0Corel-Layer"/>
  <g id="_2989109106576">
   <path class="fil0" d="M530 419c8,8 12,15 19,23 26,32 70,71 118,89 146,54 323,-48 335,-217 1,-2 1,-5 1,-9 2,-22 7,-64 11,-95 4,-31 8,-50 13,-71 4,-21 8,-43 16,-63 8,-20 20,-39 18,-47 -2,-7 -17,-5 -31,-3 -15,2 -30,2 -45,4 -16,1 -31,2 -51,4 -19,2 -42,4 -61,6 -19,1 -33,2 -52,2 -19,0 -42,-1 -54,-2 -1,0 -2,0 -3,0 -45,-2 -91,7 -126,26 -43,22 -87,62 -107,102l-3 -2c0,-1 -7,-13 -19,-26 -18,-31 -73,-72 -118,-87 -34,-12 -68,-15 -102,-12 -13,0 -32,1 -49,1 -19,0 -33,-1 -52,-2 -19,-2 -42,-4 -61,-6 -19,-2 -35,-3 -51,-4 -15,-2 -30,-2 -45,-4 -14,-2 -29,-4 -31,3 -1,8 10,27 18,47 8,20 12,42 16,63 5,21 9,40 13,71 4,28 8,66 10,89 0,5 0,11 1,16 7,115 94,197 191,222 88,22 174,-5 235,-62 8,-7 38,-45 46,-56zm-83 -122c-9,23 -37,55 -47,67 -17,21 -37,38 -72,43 -147,23 -193,-194 -43,-228 35,-8 70,2 92,18 30,30 42,51 50,61 5,7 9,11 11,17 7,10 6,10 9,22zm185 27c-5,-11 -16,-21 -19,-33 27,-49 60,-105 117,-114 153,-23 191,200 44,229 -95,18 -122,-59 -142,-82z"/>
   <circle class="fil1" cx="531" cy="74" r="24"/>
   <circle class="fil1" cx="577" cy="42" r="15"/>
   <circle class="fil1" cx="621" cy="17" r="11"/>
   <circle class="fil1" cx="661" cy="7" r="7"/>
   <circle class="fil1" cx="482" cy="44" r="15"/>
   <circle class="fil1" cx="438" cy="19" r="11"/>
   <circle class="fil1" cx="397" cy="9" r="7"/>
   <path class="fil2" d="M429 261c5,7 5,7 9,14 8,12 7,14 9,22l84 -129 -4 -5c0,0 -5,-8 -19,-24 -12,19 -26,41 -40,62 -8,12 -15,24 -22,35 -6,8 -9,14 -17,25z"/>
   <path class="fil3" d="M530 419c5,6 5,5 10,11 8,11 2,3 12,15l80 -121 -2 -3c0,-1 -6,-14 -17,-30 -12,19 -30,45 -43,66 -8,11 -15,23 -22,34 -6,8 -10,16 -18,28z"/>
  </g>
 </g>
</svg>
